<?xml version="1.0" encoding="UTF-8" standalone="no"?>
<svg
   xmlns:dc="http://purl.org/dc/elements/1.1/"
   xmlns:cc="http://creativecommons.org/ns#"
   xmlns:rdf="http://www.w3.org/1999/02/22-rdf-syntax-ns#"
   xmlns:svg="http://www.w3.org/2000/svg"
   xmlns="http://www.w3.org/2000/svg"
   viewBox="0 0 238.13333 60.200001"
   height="60.200001"
   width="238.13333"
   xml:space="preserve"
   id="svg2"
   version="1.1"><metadata
     id="metadata8"><rdf:RDF><cc:Work
         rdf:about=""><dc:format>image/svg+xml</dc:format><dc:type
           rdf:resource="http://purl.org/dc/dcmitype/StillImage" /></cc:Work></rdf:RDF></metadata><defs
     id="defs6" /><g
     transform="matrix(1.3333333,0,0,-1.3333333,0,60.2)"
     id="g10"><g
       transform="scale(0.1)"
       id="g12"><path
         id="path14"
         style="fill:#f46d1b;fill-opacity:1;fill-rule:nonzero;stroke:none"
         d="m 886.641,255.859 h -37.286 v -96.953 h -32.539 v 96.953 h -37.285 v 28.008 h 107.11 v -28.008" /><path
         id="path16"
         style="fill:#f46d1b;fill-opacity:1;fill-rule:nonzero;stroke:none"
         d="m 890.488,283.867 h 99.59 v -26.074 h -67.031 v -21.875 h 61.25 v -25.215 h -61.25 v -23.789 h 68.789 V 158.906 H 890.488 v 124.961" /><path
         id="path18"
         style="fill:#f46d1b;fill-opacity:1;fill-rule:nonzero;stroke:none"
         d="m 1082.83,239.238 c -1.74,12.598 -11.54,19.258 -25.19,19.258 -21,0 -29.07,-18.555 -29.07,-37.109 0,-18.555 8.07,-37.11 29.07,-37.11 15.21,0 23.98,8.75 25.19,23.106 h 32.56 c -1.76,-32.207 -25.37,-51.113 -57.05,-51.113 -37.81,0 -62.305,28.886 -62.305,65.117 0,36.23 24.495,65.097 62.305,65.097 26.95,0 56.17,-17.148 57.05,-47.246 h -32.56" /><path
         id="path20"
         style="fill:#f46d1b;fill-opacity:1;fill-rule:nonzero;stroke:none"
         d="m 1121.86,283.867 h 32.55 v -45.508 h 42.88 v 45.508 h 32.55 V 158.906 h -32.55 v 51.446 h -42.88 v -51.446 h -32.55 v 124.961" /><path
         id="path22"
         style="fill:#f46d1b;fill-opacity:1;fill-rule:nonzero;stroke:none"
         d="m 866.348,82.9688 c -1.758,12.5976 -11.563,19.2582 -25.215,19.2582 -20.996,0 -29.043,-18.5551 -29.043,-37.1098 0,-18.5547 8.047,-37.1094 29.043,-37.1094 15.234,0 23.984,8.75 25.215,23.1055 h 32.539 C 897.148,18.9063 873.516,0 841.836,0 c -37.793,0 -62.305,28.8867 -62.305,65.1172 0,36.2308 24.512,65.0978 62.305,65.0978 26.953,0 56.191,-17.149 57.051,-47.2462 h -32.539" /><path
         id="path24"
         style="fill:#f46d1b;fill-opacity:1;fill-rule:nonzero;stroke:none"
         d="M 905.371,127.598 H 937.91 V 82.0898 h 42.891 v 45.5082 h 32.559 V 2.63672 H 980.801 V 54.082 H 937.91 V 2.63672 H 905.371 V 127.598" /><path
         id="path26"
         style="fill:#f46d1b;fill-opacity:1;fill-rule:nonzero;stroke:none"
         d="m 1060.96,49.1797 h 28.36 l -13.83,43.7695 h -0.35 z m -2.09,78.4183 h 33.06 L 1138.67,2.63672 h -33.96 l -7.7,22.40238 h -43.57 l -7.87,-22.40238 h -33.44 l 46.74,124.96128" /><path
         id="path28"
         style="fill:#f46d1b;fill-opacity:1;fill-rule:nonzero;stroke:none"
         d="m 1137.62,127.598 h 32.54 V 30.6445 h 58.28 V 2.63672 h -90.82 V 127.598" /><path
         id="path30"
         style="fill:#f46d1b;fill-opacity:1;fill-rule:nonzero;stroke:none"
         d="m 1234.04,127.598 h 32.56 V 30.6445 h 58.28 V 2.63672 h -90.84 V 127.598" /><path
         id="path32"
         style="fill:#f46d1b;fill-opacity:1;fill-rule:nonzero;stroke:none"
         d="m 1330.47,127.598 h 99.59 v -26.075 h -67.03 V 79.6484 h 61.25 V 54.4336 h -61.25 V 30.6445 h 68.79 V 2.63672 H 1330.47 V 127.598" /><path
         id="path34"
         style="fill:#f46d1b;fill-opacity:1;fill-rule:nonzero;stroke:none"
         d="m 1439.51,127.598 h 33.42 l 43.42,-77.0121 h 0.35 v 77.0121 h 30.62 V 2.63672 h -33.43 l -43.4,77.87108 h -0.35 V 2.63672 h -30.63 V 127.598" /><path
         id="path36"
         style="fill:#f46d1b;fill-opacity:1;fill-rule:nonzero;stroke:none"
         d="m 1674.39,2.63672 h -21.01 l -1.92,13.65238 C 1642.89,4.19922 1628.18,0 1616.62,0 c -37.79,0 -62.3,28.8867 -62.3,65.1172 0,36.2308 24.51,65.0978 62.3,65.0978 25.92,0 53.56,-13.828 56.54,-45.1564 h -32.55 c -1.06,10.6836 -11.55,17.1684 -24.67,17.1684 -21.02,0 -29.07,-18.5551 -29.07,-37.1098 0,-18.5547 8.05,-37.1094 29.07,-37.1094 16.09,0 26.95,7.5195 28.69,18.9063 h -22.76 v 24.1406 h 52.52 V 2.63672" /><path
         id="path38"
         style="fill:#f46d1b;fill-opacity:1;fill-rule:nonzero;stroke:none"
         d="m 1684.71,127.598 h 99.59 v -26.075 h -67.05 V 79.6484 h 61.27 V 54.4336 h -61.27 V 30.6445 h 68.79 V 2.63672 H 1684.71 V 127.598" /><path
         id="path40"
         style="fill:#959596;fill-opacity:1;fill-rule:nonzero;stroke:none"
         d="m 357.383,305.406 c 13.086,0 25.781,-1.195 37.91,-3.41 l 28.828,30.059 c -20.164,6.98 -42.812,10.894 -66.738,10.894 -40.684,0 -77.621,-11.336 -105.016,-29.808 L 277.5,289.328 c 23.238,10.188 50.582,16.078 79.883,16.078" /><path
         id="path42"
         style="fill:#ffffff;fill-opacity:1;fill-rule:nonzero;stroke:none"
         d="m 357.383,342.949 c 23.926,0 46.574,-3.914 66.738,-10.894 l 31.359,32.636 c -29.257,11.536 -62.628,18.086 -98.097,18.086 -52.856,0 -101.09,-14.543 -137.899,-38.484 l 32.883,-31.152 c 27.395,18.472 64.332,29.808 105.016,29.808" /><path
         id="path44"
         style="fill:#959596;fill-opacity:1;fill-rule:nonzero;stroke:none"
         d="m 206.832,215.234 c 2.637,10.774 7.504,20.996 14.219,30.442 l -12.633,12.765 c -2.5,-7.851 -3.887,-16.031 -3.887,-24.449 0,-6.394 0.801,-12.664 2.301,-18.758" /><path
         id="path46"
         style="fill:#959596;fill-opacity:1;fill-rule:nonzero;stroke:none"
         d="m 113.496,144.59 -5.301,-27.481 52.762,22.715 c -3.328,7.004 -3.984,16.133 -5.906,23.555 L 113.496,144.59" /><path
         id="path48"
         style="fill:#959596;fill-opacity:1;fill-rule:nonzero;stroke:none"
         d="M 76.3672,443.574 0,25.4023 36.1172,22.4609 111.734,446.715 76.3672,443.574" /><path
         id="path50"
         style="fill:#ed1c24;fill-opacity:1;fill-rule:nonzero;stroke:none"
         d="m 333.164,202.941 v 33.805 L 277.695,289.328 252.574,313.141 219.68,344.293 111.605,446.719 35.9688,22.4609 196.016,92.8125 C 180.082,106.895 168.789,121.906 160.402,139.59 l -52.101,-22.363 5.226,27.351 33.758,175.969 2.817,14.762 27.878,-28.067 35.868,-36.121 15.39,-15.516 63.313,-54.531 -61.453,-28.172 c 15.965,-15.949 34.871,-29.98 60.351,-37.922 l 76.676,34.434 -34.961,33.527" /><path
         id="path52"
         style="fill:#959596;fill-opacity:1;fill-rule:nonzero;stroke:none"
         d="m 507.93,215.234 c 1.496,6.094 2.316,12.364 2.316,18.758 0,18.899 -6.906,36.715 -18.801,52.211 l -18.203,-18.859 c 17.492,-14.551 29.903,-32.461 34.688,-52.11" /><path
         id="path54"
         style="fill:#959596;fill-opacity:1;fill-rule:nonzero;stroke:none"
         d="m 542.16,36.25 -43.144,41.4453 c -6.907,-4.7148 -14.278,-9.082 -21.993,-13.0937 L 542.16,2.0625 743.027,211.27 742.805,245.156 542.16,36.25" /><path
         id="path56"
         style="fill:#959596;fill-opacity:1;fill-rule:nonzero;stroke:none"
         d="m 395.781,176.758 -35.527,34.121 -27.188,25.969 -0.097,-33.907 38.222,-36.718 36.543,-35.102 c 9.289,2.309 18.164,5.238 26.524,8.703 l -38.477,36.934" /><path
         id="path58"
         style="fill:#959596;fill-opacity:1;fill-rule:nonzero;stroke:none"
         d="m 535.449,365.961 -28.594,-29.77 -31.542,-32.867 -21.504,-22.386 -40.743,-42.43 17.071,-16.391 43.351,45.149 18.133,18.879 33.203,34.578 10.625,11.062 110.449,-105.875 17.09,17.735 -127.539,122.316" /><path
         id="path60"
         style="fill:#ffffff;fill-opacity:1;fill-rule:nonzero;stroke:none"
         d="m 524.824,320.723 -33.203,-34.578 c 11.875,-15.489 18.625,-33.254 18.625,-52.153 0,-6.394 -0.82,-12.664 -2.316,-18.758 -3.867,-15.898 -12.578,-30.617 -25.008,-43.359 -12.727,-13.047 -29.336,-24.012 -48.664,-32.051 -8.36,-3.465 -17.235,-6.394 -26.524,-8.703 -15.761,-3.902 -32.695,-6.07 -50.351,-6.07 -21.727,0 -42.379,3.242 -61.094,9.07 -25.492,7.942 -47.351,20.695 -63.324,36.641 -5.832,5.812 -10.863,12.062 -15.02,18.652 -5.117,8.137 -8.902,16.777 -11.113,25.82 -1.5,6.094 -2.301,12.364 -2.301,18.758 0,8.418 1.387,16.598 3.887,24.449 l -38.141,38.61 c -13.968,-20.703 -21.847,-44.043 -21.847,-68.77 0,-6.355 0.59,-12.625 1.593,-18.769 2.45,-14.942 7.809,-29.207 15.602,-42.52 3.906,-6.687 8.449,-13.125 13.555,-19.289 13.422,-16.187 30.722,-30.398 51,-41.922 35.215,-20.0388 79.312,-31.9919 127.203,-31.9919 33.515,0 65.156,5.8398 93.203,16.2031 8.516,3.1445 16.691,6.707 24.504,10.6528 18.086,9.152 34.129,20.332 47.527,33.125 22.481,21.464 37.481,47.414 42.129,75.742 1.016,6.144 1.582,12.414 1.582,18.769 0,34.672 -15.43,66.664 -41.504,92.442" /><path
         id="path62"
         style="fill:#1c63b7;fill-opacity:1;fill-rule:nonzero;stroke:none"
         d="m 395.605,176.504 38.34,-36.816 c 19.297,8.046 36.055,18.898 48.801,31.933 l -52.57,50.469 -17.059,16.387 40.516,42.203 21.484,22.386 31.563,32.875 28.593,29.774 L 662.512,243.551 645.43,225.762 541.191,117.219 C 530.215,102.18 515.977,88.8281 499.141,77.3047 l 42.832,-41.3281 200.871,209.1994 -209.199,200.859 -78.352,-81.59 -31.348,-32.66 -28.867,-30.047 -62.012,-64.89 62.539,-60.344" /><path
         id="path64"
         style="fill:#959596;fill-opacity:1;fill-rule:nonzero;stroke:none"
         d="m 218.809,188.391 c 0,0 1,-1.653 1.117,-1.848 3.066,-4.871 7.285,-9.336 11.277,-13.801 l 62.488,28.891 -143.609,133.734 -3.914,-20.687 112.664,-111.555 -40.023,-14.734" /><path
         id="path66"
         style="fill:#959596;fill-opacity:1;fill-rule:nonzero;stroke:none"
         d="m 566.328,228.281 c 0,-6.355 -0.566,-12.625 -1.582,-18.769 -4.648,-28.328 -19.648,-54.278 -42.129,-75.742 -13.398,-12.793 -29.441,-23.973 -47.527,-33.125 -7.813,-3.9458 -15.988,-7.5083 -24.504,-10.6528 -28.047,-10.3633 -59.688,-16.2031 -93.203,-16.2031 -47.891,0 -91.988,11.9531 -127.203,31.9919 -20.278,11.524 -37.578,25.735 -51,41.922 -5.106,6.164 -9.649,12.602 -13.555,19.289 -7.793,13.313 -13.152,27.578 -15.602,42.52 -1.003,6.144 -1.593,12.414 -1.593,18.769 0,2.004 0.156,3.985 0.254,5.949 -0.02,0.106 -0.059,0.254 -0.071,0.348 -1.019,-6.148 -0.183,-37.488 -0.183,-43.855 0,-10.067 1.347,-19.91 3.84,-29.442 1.945,-7.453 4.605,-14.687 7.937,-21.691 8.387,-17.684 20.977,-33.906 36.918,-47.9884 C 235.473,57.7734 293.027,36.25 357.383,36.25 c 44.668,0 86.015,10.3906 119.98,28.0273 7.715,4.004 15.051,8.3907 21.934,13.0938 16.848,11.5352 31.105,25.0629 42.082,40.1089 15.906,21.778 24.949,46.731 24.949,73.243 0,5.597 0.488,32.101 -0.047,42.636 -0.097,1.438 0.047,-3.25 0.047,-5.078" /><path
         id="path68"
         style="fill:#231f20;fill-opacity:1;fill-rule:nonzero;stroke:none"
         d="m 806.75,449.039 h 88.48 l -8.332,-34.074 h -42.41 l -4.191,-17.902 h 44.242 l -7.703,-31.567 h -43.668 l -10.484,-44.851 h -45.707 l 29.773,128.394" /><path
         id="path70"
         style="fill:#231f20;fill-opacity:1;fill-rule:nonzero;stroke:none"
         d="m 907.262,449.039 h 45.707 L 923.195,320.645 h -45.711 l 29.778,128.394" /><path
         id="path72"
         style="fill:#231f20;fill-opacity:1;fill-rule:nonzero;stroke:none"
         d="m 998.684,387.82 c 14.676,0 24.956,8.668 24.956,20.985 0,6.547 -4.83,9.816 -14.26,9.816 -2.73,0 -4.19,-0.191 -7.13,-0.769 l -6.922,-29.641 c 1.469,-0.195 1.68,-0.391 3.356,-0.391 z m -33.754,60.446 2.933,0.386 c 14.676,1.735 32.917,2.887 42.987,2.887 16.77,0 29.77,-1.926 39.63,-5.965 12.57,-5.199 20.12,-16.554 20.12,-30.222 0,-11.743 -3.98,-22.907 -11.53,-31.571 -6.5,-7.508 -12.37,-11.164 -24.53,-14.82 l -2.94,-0.965 c 1.26,-0.961 1.68,-1.348 2.31,-1.926 3.56,-4.043 14.26,-24.832 23.28,-45.425 h -50.33 c -6.5,18.285 -8.383,23.097 -16.981,43.886 l -10.066,-43.886 h -44.45 l 29.567,127.621" /><path
         id="path74"
         style="fill:#231f20;fill-opacity:1;fill-rule:nonzero;stroke:none"
         d="m 1179.11,449.039 h 110.91 l -7.75,-37.168 h -32.91 l -21.81,-91.226 h -45.71 l 21.81,91.226 h -35.68 l 11.14,37.168" /><path
         id="path76"
         style="fill:#231f20;fill-opacity:1;fill-rule:nonzero;stroke:none"
         d="m 1248.64,332.805 c 0.99,0 1.55,0.476 1.55,1.383 0,0.863 -0.52,1.335 -1.51,1.335 -0.21,0 -0.26,0 -0.47,-0.043 v -2.628 c 0.17,-0.047 0.26,-0.047 0.43,-0.047 z m -4.01,5.347 c 0.56,0.043 0.65,0.082 1.77,0.172 1.12,0.086 1.59,0.129 2.07,0.129 3.66,0 5.47,-1.422 5.47,-4.137 0,-1.636 -0.69,-2.628 -2.16,-3.191 l -0.17,-0.043 c 0.13,-0.086 0.17,-0.129 0.22,-0.215 0.39,-0.344 1.68,-2.285 2.76,-4.051 h -4.18 c -0.87,1.594 -1.12,2.028 -2.2,3.836 v -3.836 h -3.58 z m 4.31,-15.472 c 5.43,0 9.79,4.351 9.79,9.738 0,5.43 -4.36,9.785 -9.79,9.785 -5.39,0 -9.74,-4.355 -9.74,-9.742 0,-5.473 4.31,-9.781 9.74,-9.781 z m 0,20.902 c 6.16,0 11.16,-4.961 11.16,-11.121 0,-6.203 -4.95,-11.16 -11.16,-11.16 -6.25,0 -11.12,4.871 -11.12,11.16 0,6.207 4.92,11.121 11.12,11.121" /><path
         id="path78"
         style="fill:#231f20;fill-opacity:1;fill-rule:nonzero;stroke:none"
         d="m 1061.68,323.906 c 12.85,-3.816 26.91,-5.957 40.04,-5.957 17.82,0 31.45,4.039 43.19,12.512 13,9.238 21.39,23.48 21.39,36.379 0,8.664 -3.78,16.555 -10.49,22.14 -5.24,4.231 -10.69,7.508 -21.8,12.704 l -9.02,4.234 c -2.94,1.539 -4.4,3.078 -4.4,4.812 0,4.622 5.87,8.083 13.84,8.083 5.96,0 13.06,-1.731 26.64,-6.172 l 9.37,34.757 c -10.16,2.758 -20.05,4.141 -29.94,4.141 -37.32,0 -66.04,-20.402 -66.04,-46.777 0,-13.856 9.22,-23.676 32.29,-34.457 10.9,-5 12.79,-6.352 12.79,-9.817 0,-5.195 -5.66,-8.468 -14.89,-8.468 -8.18,0 -18.66,2.503 -32.92,7.699 l -0.02,-0.004 -10.03,-35.809" /></g></g></svg>