<?xml version="1.0" encoding="UTF-8"?><svg id="Layer_2" xmlns="http://www.w3.org/2000/svg" viewBox="0 0 354.38 120"><defs><style>.cls-1{fill:#d8b600;}</style></defs><g id="Poster"><g id="FoutainPFP-Gold"><g><path class="cls-1" d="M126.84,120h-17.75V0h32.17c12.46,0,22.52,3.09,30.18,9.26,7.66,6.18,11.49,15.74,11.49,28.68,0,8.59-1.98,15.83-5.94,21.71-3.96,5.88-9.19,10.24-15.69,13.06-6.5,2.82-13.65,4.24-21.47,4.24h-12.99v43.06Zm14.1-103.41h-14.1V60.53h13.79c7.08,0,12.7-1.77,16.87-5.29,4.17-3.53,6.42-8.94,6.73-16.24,0-8.12-1.98-13.88-5.94-17.29-3.96-3.41-9.74-5.12-17.35-5.12Z"/><path class="cls-1" d="M255.82,67.59h-36.76v52.41h-17.75V0h59.42l2.69,15.53h-44.37V52.41h34.38l2.38,15.18Z"/><path class="cls-1" d="M298.29,120h-17.75V0h32.17c12.46,0,22.52,3.09,30.18,9.26,7.66,6.18,11.49,15.74,11.49,28.68,0,8.59-1.98,15.83-5.94,21.71-3.96,5.88-9.19,10.24-15.69,13.06-6.5,2.82-13.65,4.24-21.47,4.24h-12.99v43.06Zm14.1-103.41h-14.1V60.53h13.79c7.08,0,12.7-1.77,16.87-5.29,4.17-3.53,6.42-8.94,6.73-16.24,0-8.12-1.98-13.88-5.94-17.29-3.96-3.41-9.74-5.12-17.35-5.12Z"/></g><path class="cls-1" d="M77.72,0h7.13V120H0v-19.54C48.33,95.75,77.4,45.36,77.72,0Z"/><rect class="cls-1" x="93.64" width="6.67" height="120"/></g></g></svg>