<?xml version="1.0" encoding="UTF-8"?><svg id="Layer_2" xmlns="http://www.w3.org/2000/svg" viewBox="0 0 337.57 120"><defs><style>.cls-1{fill:#fff;}</style></defs><g id="Poster"><g id="FoutainWords-White"><g><path class="cls-1" d="M142.9,91.81h-20.34v26.9h-13.85V51.55h36.77l1.6,12.07h-24.51v16.02h18.74l1.6,12.17Z"/><path class="cls-1" d="M156.13,118.71V51.45h13.85V118.71h-13.85Z"/><path class="cls-1" d="M184.64,51.45h22.29c7.1,0,12.94,1.83,17.5,5.49,4.56,3.66,6.84,9.12,6.84,16.37,0,3.96-.83,7.45-2.49,10.48-1.66,3.03-3.91,5.44-6.75,7.22l14.12,27.7h-15.54l-11.28-23.34h-10.84v23.34h-13.85V51.45Zm21.85,12.46h-7.99v19.19h8.17c3.02,0,5.46-.84,7.33-2.52,1.86-1.68,2.8-4.01,2.8-6.97,0-3.3-.89-5.74-2.66-7.32-1.78-1.58-4.32-2.37-7.64-2.37Z"/><path class="cls-1" d="M240.59,114.46l4-12.07c1.89,1.12,4.25,2.16,7.06,3.12,2.81,.96,5.31,1.43,7.5,1.43,2.96,0,5.24-.58,6.84-1.73,1.6-1.15,2.4-2.69,2.4-4.6,0-1.25-.61-2.41-1.82-3.46-1.21-1.05-3.18-2.47-5.91-4.25-.59-.33-1.48-.89-2.66-1.68-4.03-2.7-7.18-4.95-9.46-6.73-2.28-1.78-4.29-4.02-6.04-6.73-1.75-2.7-2.62-5.74-2.62-9.1,.06-3.56,.96-6.74,2.71-9.54,1.75-2.8,4.25-5.01,7.5-6.63,3.26-1.61,7.07-2.42,11.46-2.42,2.96,0,6.01,.48,9.15,1.43,3.14,.96,5.89,2.23,8.26,3.81l-4.26,11.28c-2.84-1.32-5.18-2.24-7.02-2.77-1.84-.53-3.82-.79-5.95-.79s-3.98,.51-5.37,1.53c-1.39,1.02-2.09,2.42-2.09,4.2,0,1.45,.58,2.72,1.73,3.81,1.15,1.09,3,2.39,5.55,3.91,.95,.46,1.92,1.06,2.93,1.78,4.26,2.77,7.52,5.03,9.77,6.78,2.25,1.75,4.23,3.96,5.95,6.63,1.72,2.67,2.58,5.72,2.58,9.15,0,3.69-.93,6.99-2.8,9.89-1.86,2.9-4.56,5.18-8.08,6.82-3.52,1.65-7.68,2.47-12.48,2.47-2.78,0-6.08-.56-9.9-1.68-3.82-1.12-6.79-2.41-8.93-3.86Z"/><path class="cls-1" d="M337.57,63.62h-19.98v55.09h-13.94V63.62h-18.03v-12.17h50.27l1.69,12.17Z"/></g><g><path class="cls-1" d="M116.05,45.83h-6.78V0h12.28c4.76,0,8.6,1.18,11.53,3.54,2.92,2.36,4.39,6.01,4.39,10.95,0,3.28-.76,6.04-2.27,8.29-1.51,2.25-3.51,3.91-5.99,4.99-2.48,1.08-5.21,1.62-8.2,1.62h-4.96v16.45Zm5.39-39.5h-5.39V23.12h5.26c2.7,0,4.85-.67,6.45-2.02,1.59-1.35,2.45-3.41,2.57-6.2,0-3.1-.76-5.3-2.27-6.6-1.51-1.3-3.72-1.95-6.63-1.95Z"/><path class="cls-1" d="M150.72,0V28.71c0,3.73,.87,6.61,2.6,8.63,1.73,2.02,4.07,3.03,7.02,3.03s5.28-1.02,7.02-3.07c1.73-2.04,2.6-4.91,2.6-8.59V0h6.84V29.32c0,3.28-.68,6.23-2.03,8.86-1.35,2.63-3.27,4.68-5.75,6.17-2.48,1.48-5.38,2.22-8.68,2.22s-6.2-.74-8.68-2.22c-2.48-1.48-4.4-3.54-5.75-6.17-1.35-2.63-2.03-5.58-2.03-8.86V0h6.84Z"/><path class="cls-1" d="M186.85,0h12.28c4.72,0,8.55,1.16,11.5,3.47,2.94,2.31,4.42,5.76,4.42,10.35,0,2.83-.65,5.28-1.94,7.35-1.29,2.07-3.01,3.64-5.14,4.72l10.23,19.95h-7.32l-8.96-18.06c-.81,.13-1.92,.2-3.33,.2h-4.96v17.86h-6.78V0Zm12.16,6.34h-5.39v15.43h5.26c2.7,0,4.88-.61,6.54-1.82,1.65-1.21,2.48-3.14,2.48-5.8,0-2.79-.77-4.79-2.3-6-1.53-1.21-3.73-1.82-6.6-1.82Z"/><path class="cls-1" d="M239.2,45.83h-15.07V0h15.19c6.13,0,10.77,2.07,13.92,6.2,3.15,4.13,4.72,9.62,4.72,16.45,0,4.63-.73,8.68-2.18,12.17-1.45,3.48-3.59,6.19-6.41,8.12-2.82,1.93-6.21,2.9-10.17,2.9Zm.36-39.36h-8.65V39.5h8.23c3.67,0,6.57-1.4,8.68-4.21,2.12-2.81,3.18-7,3.18-12.57,0-5.12-.95-9.11-2.84-11.96-1.9-2.85-4.76-4.28-8.59-4.28Z"/><path class="cls-1" d="M271.75,0V28.71c0,3.73,.87,6.61,2.6,8.63,1.73,2.02,4.07,3.03,7.02,3.03s5.28-1.02,7.02-3.07c1.73-2.04,2.6-4.91,2.6-8.59V0h6.84V29.32c0,3.28-.68,6.23-2.03,8.86-1.35,2.63-3.27,4.68-5.75,6.17-2.48,1.48-5.38,2.22-8.68,2.22s-6.2-.74-8.68-2.22c-2.48-1.48-4.4-3.54-5.75-6.17-1.35-2.63-2.03-5.58-2.03-8.86V0h6.84Z"/><path class="cls-1" d="M307.88,45.83V0h23.84l.97,5.93h-18.03v13.68h13.68l1.03,5.93h-14.71v14.36h19.61l1.03,5.93h-27.41Z"/></g><path class="cls-1" d="M77.72,0h7.13V120H0v-19.54C48.33,95.75,77.4,45.36,77.72,0Z"/><rect class="cls-1" x="93.64" width="6.67" height="120"/></g></g></svg>