<?xml version="1.0" encoding="UTF-8"?><svg id="Layer_2" xmlns="http://www.w3.org/2000/svg" viewBox="0 0 160 187.7"><defs><style>.cls-1{fill:#fff;}</style></defs><g id="Poster"><g id="Logo-White"><path id="Path_1" class="cls-1" d="M64.12,0h5.88V99H0v-16.12C39.87,78.99,63.85,37.42,64.12,0Zm13.13,0h5.5V99h-5.5V0Zm82.75,104.5v5.5H0v-5.5H160Zm0-21.62v16.12H90V0h5.88c.27,37.42,24.25,78.99,64.12,82.88Z"/><g><path class="cls-1" d="M16.27,187.7H0V120H25.56c4.65,0,8.86,.91,12.65,2.74,3.78,1.83,6.79,4.58,9.03,8.26s3.35,8.15,3.35,13.39-1.19,9.54-3.58,13.09c-2.38,3.55-5.53,6.19-9.43,7.91-3.9,1.73-8.15,2.59-12.74,2.59h-8.58v19.71Zm8.76-53.46h-8.76v19.51h8.94c2.5,0,4.56-.9,6.17-2.69,1.61-1.79,2.41-4.02,2.41-6.67,0-3.05-.79-5.51-2.37-7.37-1.58-1.86-3.71-2.79-6.39-2.79Z"/><path class="cls-1" d="M96,162.01h-20.2v25.68h-16.27V120h39.42l1.52,14.24h-24.67v13.54h18.68l1.52,14.24Z"/><path class="cls-1" d="M125.68,187.7h-16.27V120h25.56c4.65,0,8.86,.91,12.65,2.74,3.78,1.83,6.79,4.58,9.03,8.26s3.35,8.15,3.35,13.39-1.19,9.54-3.58,13.09c-2.38,3.55-5.53,6.19-9.43,7.91-3.9,1.73-8.15,2.59-12.74,2.59h-8.58v19.71Zm8.76-53.46h-8.76v19.51h8.94c2.5,0,4.56-.9,6.17-2.69,1.61-1.79,2.41-4.02,2.41-6.67,0-3.05-.79-5.51-2.37-7.37-1.58-1.86-3.71-2.79-6.39-2.79Z"/></g></g></g></svg>