<?xml version="1.0" encoding="UTF-8"?><svg id="Layer_2" xmlns="http://www.w3.org/2000/svg" viewBox="0 0 201.81 120"><defs><style>.cls-1{fill:#d8b600;}</style></defs><g id="Poster"><g id="Wordmark-Gold"><g><path class="cls-1" d="M30.15,80.96H12.22v23.72H0V45.46H32.42l1.41,10.64H12.22v14.13H28.74l1.41,10.73Z"/><path class="cls-1" d="M41.82,104.68V45.37h12.22v59.31h-12.22Z"/><path class="cls-1" d="M66.96,45.37h19.66c6.27,0,11.41,1.61,15.43,4.84,4.02,3.23,6.03,8.04,6.03,14.43,0,3.49-.73,6.57-2.19,9.25-1.46,2.68-3.45,4.8-5.95,6.37l12.45,24.42h-13.7l-9.95-20.58h-9.55v20.58h-12.22V45.37Zm19.27,10.99h-7.05v16.92h7.2c2.66,0,4.82-.74,6.46-2.22,1.64-1.48,2.47-3.53,2.47-6.15,0-2.91-.78-5.06-2.35-6.45-1.57-1.4-3.81-2.09-6.74-2.09Z"/><path class="cls-1" d="M116.3,100.93l3.52-10.64c1.67,.99,3.75,1.91,6.23,2.75,2.48,.84,4.69,1.26,6.62,1.26,2.61,0,4.62-.51,6.03-1.53,1.41-1.02,2.11-2.37,2.11-4.06,0-1.1-.54-2.12-1.61-3.05-1.07-.93-2.81-2.18-5.21-3.75-.52-.29-1.31-.79-2.35-1.48-3.55-2.38-6.33-4.36-8.34-5.93-2.01-1.57-3.79-3.55-5.33-5.93-1.54-2.38-2.31-5.06-2.31-8.02,.05-3.14,.85-5.94,2.39-8.42,1.54-2.47,3.75-4.42,6.62-5.84,2.87-1.42,6.24-2.14,10.1-2.14,2.61,0,5.3,.42,8.07,1.26,2.77,.84,5.19,1.96,7.28,3.36l-3.76,9.94c-2.51-1.16-4.57-1.98-6.19-2.44-1.62-.46-3.37-.7-5.25-.7s-3.51,.45-4.74,1.35c-1.23,.9-1.84,2.14-1.84,3.71,0,1.28,.51,2.4,1.53,3.36,1.02,.96,2.65,2.11,4.89,3.44,.83,.41,1.7,.93,2.58,1.57,3.76,2.44,6.63,4.43,8.61,5.97,1.98,1.54,3.73,3.49,5.25,5.84,1.51,2.35,2.27,5.05,2.27,8.07,0,3.26-.82,6.16-2.47,8.72-1.64,2.56-4.02,4.57-7.13,6.02-3.11,1.45-6.77,2.18-11,2.18-2.45,0-5.36-.49-8.73-1.48-3.37-.99-5.99-2.12-7.87-3.4Z"/><path class="cls-1" d="M201.81,56.1h-17.62v48.58h-12.3V56.1h-15.9v-10.73h44.33l1.49,10.73Z"/></g><g><path class="cls-1" d="M6.48,40.41H.5V0H11.33c4.2,0,7.59,1.04,10.17,3.12,2.58,2.08,3.87,5.3,3.87,9.66,0,2.89-.67,5.33-2,7.31-1.33,1.98-3.1,3.45-5.28,4.4s-4.6,1.43-7.23,1.43H6.48v14.5ZM11.23,5.59H6.48v14.8h4.64c2.38,0,4.28-.59,5.68-1.78,1.4-1.19,2.16-3.01,2.27-5.47,0-2.73-.67-4.67-2-5.82-1.33-1.15-3.28-1.72-5.84-1.72Z"/><path class="cls-1" d="M37.05,0V25.32c0,3.29,.76,5.82,2.29,7.61,1.53,1.78,3.59,2.67,6.19,2.67s4.66-.9,6.19-2.7c1.53-1.8,2.29-4.33,2.29-7.58V0h6.03V25.85c0,2.89-.6,5.5-1.79,7.82-1.19,2.32-2.88,4.13-5.07,5.44-2.19,1.31-4.74,1.96-7.66,1.96s-5.47-.65-7.66-1.96c-2.19-1.31-3.88-3.12-5.07-5.44-1.19-2.32-1.79-4.92-1.79-7.82V0h6.03Z"/><path class="cls-1" d="M68.91,0h10.83c4.16,0,7.54,1.02,10.14,3.06,2.6,2.04,3.9,5.08,3.9,9.12,0,2.5-.57,4.66-1.71,6.48-1.14,1.82-2.65,3.21-4.54,4.16l9.02,17.59h-6.46l-7.9-15.93c-.71,.12-1.69,.18-2.94,.18h-4.38v15.75h-5.98V0Zm10.73,5.59h-4.75v13.61h4.64c2.38,0,4.3-.53,5.76-1.6,1.46-1.07,2.19-2.77,2.19-5.11,0-2.46-.68-4.22-2.03-5.29-1.35-1.07-3.29-1.6-5.82-1.6Z"/><path class="cls-1" d="M115.07,40.41h-13.29V0h13.39c5.41,0,9.5,1.82,12.27,5.47,2.78,3.65,4.16,8.48,4.16,14.5,0,4.08-.64,7.66-1.92,10.73-1.28,3.07-3.17,5.46-5.66,7.16-2.49,1.7-5.48,2.56-8.97,2.56Zm.32-34.71h-7.63v29.12h7.26c3.24,0,5.79-1.24,7.66-3.71,1.87-2.48,2.8-6.17,2.8-11.08,0-4.52-.84-8.03-2.51-10.55-1.67-2.52-4.2-3.77-7.58-3.77Z"/><path class="cls-1" d="M143.78,0V25.32c0,3.29,.76,5.82,2.29,7.61,1.53,1.78,3.59,2.67,6.19,2.67s4.66-.9,6.19-2.7c1.53-1.8,2.29-4.33,2.29-7.58V0h6.03V25.85c0,2.89-.6,5.5-1.79,7.82-1.19,2.32-2.88,4.13-5.07,5.44-2.19,1.31-4.74,1.96-7.66,1.96s-5.47-.65-7.66-1.96c-2.19-1.31-3.88-3.12-5.07-5.44-1.19-2.32-1.79-4.92-1.79-7.82V0h6.03Z"/><path class="cls-1" d="M175.64,40.41V0h21.03l.85,5.23h-15.9v12.06h12.06l.91,5.23h-12.97v12.66h17.29l.91,5.23h-24.17Z"/></g><g><path class="cls-1" d="M7.14,109.5l-.35,.89c-.38-.16-.7-.27-.97-.34-.27-.07-.63-.1-1.07-.1-.62,0-1.19,.19-1.7,.58-.51,.39-.91,.93-1.2,1.62-.29,.69-.44,1.47-.44,2.34,0,.82,.13,1.56,.38,2.24,.25,.67,.62,1.21,1.11,1.6,.49,.39,1.06,.59,1.72,.59,.45,0,.84-.04,1.18-.13,.33-.08,.65-.2,.94-.35l.42,.94c-.29,.17-.68,.31-1.16,.43-.48,.12-.93,.18-1.33,.18-.94,0-1.74-.25-2.41-.74-.67-.49-1.17-1.16-1.51-1.99-.34-.84-.51-1.76-.51-2.76,0-1.06,.18-2.01,.55-2.86,.37-.85,.89-1.52,1.58-2.02,.69-.49,1.48-.74,2.38-.74,.35,0,.77,.05,1.25,.16,.49,.11,.87,.26,1.14,.45Z"/><path class="cls-1" d="M14.4,119.78v-4.88h-4.49v4.88h-1.11v-10.67l1.11-.08v4.86h4.49v-4.79h1.11v10.67h-1.11Z"/><path class="cls-1" d="M21.58,109.11l3.68,10.57-1.1,.2-1.07-3.14h-4.04l-1,3.03h-1.08l3.55-10.67h1.07Zm-.55,1.63l-1.68,5h3.41l-1.73-5Z"/><path class="cls-1" d="M32.38,119.78h-5.68v-10.67h1.11v9.68h4.45l.11,.99Z"/><path class="cls-1" d="M39.51,119.78h-5.68v-10.67h1.11v9.68h4.45l.11,.99Z"/><path class="cls-1" d="M40.96,119.78v-10.67h5.23l.13,.93h-4.24v3.83h3.31l.13,.93h-3.44v4h4.52l.14,.99h-5.78Z"/><path class="cls-1" d="M48.33,119.78v-10.67h.89l4.66,7.22,.58,1.05v-8.27h1.13v10.67h-.9l-4.87-7.67-.37-.71v8.38h-1.11Z"/><path class="cls-1" d="M61.8,115.21l.1-.93h3.09v4.97c-.31,.21-.72,.38-1.23,.53-.51,.14-1,.21-1.47,.21-.96,0-1.8-.24-2.53-.72-.73-.48-1.29-1.14-1.68-1.97s-.59-1.77-.59-2.8c0-1.09,.22-2.06,.65-2.91,.43-.85,1.02-1.52,1.78-1.99,.75-.48,1.59-.71,2.51-.71,.35,0,.77,.05,1.26,.16,.49,.11,.88,.26,1.15,.45l-.35,.89c-.38-.16-.7-.27-.97-.34-.27-.07-.62-.1-1.06-.1-.67,0-1.29,.18-1.87,.54-.58,.36-1.04,.88-1.39,1.57-.35,.69-.53,1.49-.53,2.42s.16,1.67,.47,2.34c.31,.67,.75,1.18,1.3,1.55,.55,.36,1.17,.54,1.85,.54,.56,0,1.11-.1,1.63-.31v-3.39h-2.11Z"/><path class="cls-1" d="M67.02,119.78v-10.67h5.23l.13,.93h-4.24v3.83h3.31l.13,.93h-3.44v4h4.52l.14,.99h-5.78Z"/><path class="cls-1" d="M78.77,108.72v11.15l-1.1-.09v-11.15l1.1,.09Z"/><path class="cls-1" d="M88.62,116.27l-2.83-4.55v8.06h-1.11v-10.67h.66l3.44,5.44,3.32-5.44h.7v10.67h-1.13v-8.03l-2.68,4.44-.38,.08Z"/><path class="cls-1" d="M95.42,119.78v-10.67h5.23l.13,.93h-4.24v3.83h3.31l.13,.93h-3.44v4h4.52l.14,.99h-5.78Z"/><path class="cls-1" d="M102.79,119.78v-10.67h.89l4.66,7.22,.58,1.05v-8.27h1.13v10.67h-.9l-4.87-7.67-.37-.71v8.38h-1.11Z"/><path class="cls-1" d="M119.13,110.08h-3.31v9.7h-1.13v-9.7h-3.21v-.97h7.52l.13,.97Z"/><path class="cls-1" d="M124.4,108.86c.85,0,1.62,.24,2.31,.71,.69,.47,1.22,1.12,1.61,1.96,.39,.84,.58,1.78,.58,2.84s-.2,2.01-.58,2.86c-.39,.85-.93,1.52-1.63,2.02-.7,.49-1.47,.74-2.34,.75-.85,0-1.62-.24-2.3-.71-.68-.47-1.21-1.12-1.59-1.96-.39-.84-.58-1.78-.58-2.84s.19-2.01,.58-2.86c.39-.85,.93-1.52,1.61-2.01,.69-.49,1.46-.75,2.32-.77Zm-3.35,5.62c0,.85,.14,1.61,.42,2.28s.67,1.2,1.16,1.58c.49,.38,1.05,.57,1.68,.57s1.23-.19,1.74-.58c.51-.39,.91-.93,1.2-1.62s.44-1.47,.44-2.34-.14-1.61-.42-2.28c-.28-.67-.67-1.2-1.16-1.58-.49-.38-1.05-.57-1.68-.57s-1.23,.2-1.74,.59c-.51,.39-.91,.93-1.2,1.62-.29,.69-.44,1.46-.44,2.33Z"/><path class="cls-1" d="M130.8,109.11h2.61c1.08,0,1.94,.25,2.58,.75,.64,.5,.96,1.29,.96,2.35,0,.69-.16,1.27-.46,1.73-.3,.47-.71,.82-1.23,1.06l2.44,4.77h-1.23l-2.2-4.44c-.34,.04-.67,.06-1,.06h-1.35v4.38h-1.11v-10.67Zm2.62,1.05h-1.51v4.22h1.39c.74,0,1.34-.16,1.8-.49,.46-.33,.69-.87,.7-1.62,0-.78-.21-1.33-.62-1.64-.41-.31-1-.46-1.76-.46Z"/><path class="cls-1" d="M143.52,108.72v11.15l-1.1-.09v-11.15l1.1,.09Z"/><path class="cls-1" d="M149.42,119.78v-10.67h5.23l.13,.93h-4.24v3.83h3.31l.13,.93h-3.44v4h4.52l.14,.99h-5.78Z"/><path class="cls-1" d="M156.79,119.78v-10.67h.89l4.66,7.22,.58,1.05v-8.27h1.13v10.67h-.9l-4.87-7.67-.37-.71v8.38h-1.11Z"/><path class="cls-1" d="M170.25,115.21l.1-.93h3.08v4.97c-.31,.21-.72,.38-1.23,.53-.51,.14-1,.21-1.47,.21-.96,0-1.8-.24-2.53-.72-.73-.48-1.29-1.14-1.68-1.97s-.59-1.77-.59-2.8c0-1.09,.22-2.06,.65-2.91,.43-.85,1.02-1.52,1.78-1.99,.75-.48,1.59-.71,2.51-.71,.35,0,.77,.05,1.26,.16,.49,.11,.88,.26,1.15,.45l-.35,.89c-.38-.16-.7-.27-.97-.34-.27-.07-.62-.1-1.06-.1-.67,0-1.29,.18-1.87,.54s-1.04,.88-1.39,1.57c-.35,.69-.53,1.49-.53,2.42s.16,1.67,.47,2.34c.31,.67,.75,1.18,1.3,1.55,.55,.36,1.17,.54,1.85,.54,.56,0,1.11-.1,1.63-.31v-3.39h-2.11Z"/><path class="cls-1" d="M178.93,109.11l3.68,10.57-1.1,.2-1.07-3.14h-4.04l-1,3.03h-1.08l3.55-10.67h1.07Zm-.55,1.63l-1.68,5h3.41l-1.73-5Z"/><path class="cls-1" d="M187.66,115.21l.1-.93h3.08v4.97c-.31,.21-.72,.38-1.23,.53-.51,.14-1,.21-1.47,.21-.96,0-1.8-.24-2.53-.72-.73-.48-1.29-1.14-1.68-1.97s-.59-1.77-.59-2.8c0-1.09,.22-2.06,.65-2.91,.43-.85,1.02-1.52,1.78-1.99,.75-.48,1.59-.71,2.51-.71,.35,0,.77,.05,1.26,.16,.49,.11,.88,.26,1.15,.45l-.35,.89c-.38-.16-.7-.27-.97-.34-.27-.07-.62-.1-1.06-.1-.67,0-1.29,.18-1.87,.54s-1.04,.88-1.39,1.57c-.35,.69-.53,1.49-.53,2.42s.16,1.67,.47,2.34c.31,.67,.75,1.18,1.3,1.55,.55,.36,1.17,.54,1.85,.54,.56,0,1.11-.1,1.63-.31v-3.39h-2.11Z"/><path class="cls-1" d="M192.89,119.78v-10.67h5.23l.13,.93h-4.24v3.83h3.31l.13,.93h-3.44v4h4.52l.14,.99h-5.78Z"/></g></g></g></svg>